<?xml version="1.0" standalone="no"?>
<!DOCTYPE svg PUBLIC "-//W3C//DTD SVG 20010904//EN"
 "http://www.w3.org/TR/2001/REC-SVG-20010904/DTD/svg10.dtd">
<svg version="1.0" xmlns="http://www.w3.org/2000/svg"
 width="512.000000pt" height="512.000000pt" viewBox="0 0 512.000000 512.000000"
 preserveAspectRatio="xMidYMid meet">
<metadata>
Created by potrace 1.14, written by Peter Selinger 2001-2017
</metadata>
<g transform="translate(0.000000,512.000000) scale(0.100000,-0.100000)"
fill="#000000" stroke="none">
<path d="M2498 5031 l-40 -89 -47 -7 c-103 -15 -141 -26 -141 -43 0 -8 29 -44
65 -79 l66 -64 -8 -62 c-11 -86 -10 -140 2 -144 6 -2 46 17 89 42 l78 44 79
-39 c105 -53 113 -53 105 8 -3 26 -10 72 -16 101 -10 54 -10 55 23 90 76 81
97 104 97 111 0 11 -26 31 -36 28 -13 -3 -153 18 -158 24 -2 2 -22 40 -46 86
-23 45 -49 82 -57 82 -8 0 -31 -37 -55 -89z"/>
<path d="M1247 4966 c-23 -49 -29 -56 -64 -62 -21 -5 -41 -9 -45 -10 -5 -1
-15 -2 -23 -3 -27 -2 -16 -36 25 -76 l41 -40 -7 -62 c-8 -78 5 -86 71 -47 l47
27 55 -27 c70 -34 80 -27 67 48 -11 61 -7 74 38 117 28 28 36 53 19 63 -4 3
-27 8 -50 11 -58 7 -67 14 -94 65 -31 64 -50 63 -80 -4z"/>
<path d="M1853 5008 c-5 -7 -17 -32 -27 -55 -17 -39 -37 -53 -78 -53 -9 0 -29
-5 -43 -10 -27 -10 -27 -10 -9 -38 9 -15 30 -38 45 -52 25 -23 27 -29 20 -70
-14 -96 0 -109 69 -65 l42 27 57 -26 c74 -33 86 -24 69 57 l-12 57 42 43 c60
61 57 69 -33 83 -52 8 -51 7 -80 65 -25 49 -44 60 -62 37z"/>
<path d="M3200 4969 c-28 -58 -30 -60 -79 -66 -44 -6 -71 -20 -71 -36 0 -7 18
-31 41 -52 l40 -40 -7 -61 c-8 -78 2 -84 71 -49 l53 26 51 -26 c29 -14 56 -23
61 -20 12 8 13 50 1 91 -10 35 -2 53 41 94 45 43 35 63 -36 74 -57 9 -58 10
-84 63 -33 67 -52 68 -82 2z"/>
<path d="M3783 4966 c-25 -52 -43 -66 -85 -66 -9 0 -28 -4 -43 -10 -30 -12
-26 -25 28 -82 29 -30 34 -42 30 -70 -14 -106 -4 -118 67 -73 22 14 44 25 49
25 5 0 32 -12 61 -27 43 -22 53 -24 60 -12 5 7 7 23 5 34 -18 91 -18 92 26
139 22 25 39 51 37 58 -3 7 -31 17 -64 23 -58 10 -60 11 -87 63 -16 28 -35 52
-43 52 -8 0 -26 -24 -41 -54z"/>
<path d="M2226 4369 c-56 -13 -126 -50 -126 -66 0 -7 -7 -14 -15 -14 -8 -1
-23 -2 -32 -3 -14 -1 -19 9 -23 39 l-5 40 -55 0 -55 0 1 -37 c1 -21 -1 -38 -5
-39 -9 -1 -113 -1 -132 0 -10 1 -16 10 -16 24 -1 58 0 57 -58 57 l-55 0 0 -40
0 -40 -42 -1 c-24 0 -154 -1 -290 -2 -180 -2 -250 -5 -259 -14 -17 -17 -18
-258 -1 -275 8 -8 55 -12 142 -12 l130 -1 -2 -205 -3 -205 -588 0 c-552 0
-589 -1 -602 -18 -8 -12 -12 -48 -11 -113 2 -122 2 -122 142 -120 97 1 105 0
109 -19 2 -11 3 -751 2 -1644 -2 -1323 0 -1627 11 -1642 13 -18 76 -19 2176
-19 1812 0 2165 2 2175 14 8 10 10 449 9 1662 l-3 1649 100 0 c118 -1 155 8
156 38 6 115 1 191 -13 201 -10 8 -194 11 -606 11 -388 0 -592 3 -593 10 -1
14 -1 356 0 381 1 21 6 22 103 23 57 1 107 6 112 11 5 5 11 64 12 131 2 101
-1 124 -15 138 -14 14 -53 16 -344 16 -212 0 -327 3 -328 10 -1 5 -3 19 -4 30
-1 11 -3 26 -3 33 -2 9 -17 12 -54 10 -53 -3 -53 -3 -56 -38 -6 -64 -42 -63
-42 1 0 24 -5 39 -12 40 -68 3 -250 -1 -258 -6 -5 -3 -10 -24 -10 -46 0 -53
-18 -50 -22 4 l-3 42 -65 5 c-36 3 -110 3 -165 0 l-100 -5 -3 -43 c-3 -38 -5
-42 -26 -38 -13 2 -36 16 -52 31 -56 52 -148 73 -228 54z"/>
</g>
</svg>
